<?xml version="1.0" encoding="UTF-8"?>
<svg version="1.1" xmlns="http://www.w3.org/2000/svg" width="2458" height="512">
<path d="M0 0 C1.01790619 0.00215515 2.03581238 0.0043103 3.08456421 0.00653076 C17.69363523 0.05620146 32.02575853 0.30709809 46.375 3.3125 C47.34985352 3.51117676 48.32470703 3.70985352 49.32910156 3.91455078 C103.99427125 15.34952438 149.49869454 41.74744109 188.375 81.3125 C191.92077578 79.97028679 195.16789325 78.39595652 198.46484375 76.52734375 C199.41423828 75.99689453 200.36363281 75.46644531 201.34179688 74.91992188 C203.32097133 73.80736819 205.2975481 72.69018058 207.27148438 71.56835938 C208.22216797 71.03919922 209.17285156 70.51003906 210.15234375 69.96484375 C211.01077881 69.48007568 211.86921387 68.99530762 212.75366211 68.49584961 C215.63073759 67.19705247 218.27470033 66.821238 221.375 66.3125 C222.035 65.6525 222.695 64.9925 223.375 64.3125 C227.327017 61.06620033 231.29408823 58.56730552 236.4375 57.9375 C242.40876701 56.98967984 247.79540022 54.58629179 253.375 52.3125 C253.375 51.6525 253.375 50.9925 253.375 50.3125 C256.015 49.9825 258.655 49.6525 261.375 49.3125 C261.375 48.6525 261.375 47.9925 261.375 47.3125 C263.85 47.8075 263.85 47.8075 266.375 48.3125 C266.375 53.5925 266.375 58.8725 266.375 64.3125 C263.12805663 66.13066847 259.87770604 67.94219437 256.625 69.75 C255.70460938 70.26626953 254.78421875 70.78253906 253.8359375 71.31445312 C252.50175781 72.05405273 252.50175781 72.05405273 251.140625 72.80859375 C250.32368164 73.26419678 249.50673828 73.7197998 248.66503906 74.18920898 C246.375 75.3125 246.375 75.3125 244.13964844 75.84399414 C243.55731445 75.99860107 242.97498047 76.15320801 242.375 76.3125 C242.045 76.9725 241.715 77.6325 241.375 78.3125 C240.776875 78.43625 240.17875 78.56 239.5625 78.6875 C237.20401322 79.16984239 237.20401322 79.16984239 235.4375 81.25 C232.47390401 84.21359599 229.28380438 85.00956521 225.375 86.3125 C225.045 87.3025 224.715 88.2925 224.375 89.3125 C222.27802821 90.95888281 220.21007137 92.4609437 218 93.9375 C217.40960938 94.34484375 216.81921875 94.7521875 216.2109375 95.171875 C213.6193355 96.93463131 211.36289278 98.31653574 208.375 99.3125 C207.715 100.3025 207.055 101.2925 206.375 102.3125 C206.7467334 102.85438965 207.1184668 103.3962793 207.50146484 103.95458984 C229.87067262 136.69152905 246.04430218 171.06868422 253.375 210.3125 C253.53726074 211.11751953 253.69952148 211.92253906 253.86669922 212.75195312 C259.33955505 240.74315384 259.2209259 274.40122396 253.375 302.3125 C253.07698486 303.77478027 253.07698486 303.77478027 252.77294922 305.26660156 C242.65232806 353.6484774 220.7358123 397.63678269 186.375 433.3125 C185.74287598 433.97185547 185.11075195 434.63121094 184.45947266 435.31054688 C175.31502521 444.79880305 166.01765991 453.5387044 155.375 461.3125 C154.22394983 462.17056152 153.07290823 463.02863451 151.921875 463.88671875 C143.73224019 469.92427396 135.22961724 475.30707302 126.375 480.3125 C125.66778809 480.7146875 124.96057617 481.116875 124.23193359 481.53125 C101.09654164 494.5566741 75.92537591 503.30551461 49.9375 508.625 C49.21860596 508.77235596 48.49971191 508.91971191 47.7590332 509.0715332 C33.08339502 511.86090125 18.55831162 512.66142619 3.64770508 512.62817383 C0.70811513 512.6250221 -2.2304558 512.64854926 -5.16992188 512.67382812 C-18.54306192 512.71848737 -31.43916711 511.51301542 -44.625 509.3125 C-46.33055054 509.03031616 -46.33055054 509.03031616 -48.07055664 508.74243164 C-91.33802759 500.97044532 -132.38793216 480.98345309 -165.625 452.3125 C-166.37007813 451.67828125 -167.11515625 451.0440625 -167.8828125 450.390625 C-181.38779833 438.57948485 -194.05918743 425.82889772 -204.625 411.3125 C-205.48149066 410.16255169 -206.33826433 409.01281411 -207.1953125 407.86328125 C-213.23534209 399.67315742 -218.61867614 391.16870382 -223.625 382.3125 C-224.0271875 381.60528809 -224.429375 380.89807617 -224.84375 380.16943359 C-237.8691741 357.03404164 -246.61801461 331.86287591 -251.9375 305.875 C-252.08485596 305.15610596 -252.23221191 304.43721191 -252.3840332 303.6965332 C-255.35789088 288.05024391 -255.99800362 272.57681954 -255.9375 256.6875 C-255.93534485 255.66959381 -255.9331897 254.65168762 -255.93096924 253.60293579 C-255.88129854 238.99386477 -255.63040191 224.66174147 -252.625 210.3125 C-252.42632324 209.33764648 -252.22764648 208.36279297 -252.02294922 207.35839844 C-241.90232806 158.9765226 -219.9858123 114.98821731 -185.625 79.3125 C-184.99287598 78.65314453 -184.36075195 77.99378906 -183.70947266 77.31445312 C-174.56502521 67.82619695 -165.26765991 59.0862956 -154.625 51.3125 C-153.47394983 50.45443848 -152.32290823 49.59636549 -151.171875 48.73828125 C-142.98224019 42.70072604 -134.47961724 37.31792698 -125.625 32.3125 C-124.91778809 31.9103125 -124.21057617 31.508125 -123.48193359 31.09375 C-100.34654164 18.0683259 -75.17537591 9.31948539 -49.1875 4 C-48.46860596 3.85264404 -47.74971191 3.70528809 -47.0090332 3.5534668 C-31.36274391 0.57960912 -15.88931954 -0.06050362 0 0 Z " fill="#47A7F5" transform="translate(255.625,-0.3125)"/>
<path d="M0 0 C1.28205322 -0.01401855 2.56410645 -0.02803711 3.88500977 -0.04248047 C16.78515755 0.02192531 28.88489688 2.30810821 40.875 7.0625 C41.76630615 7.41062744 42.6576123 7.75875488 43.57592773 8.11743164 C63.60549921 16.1556506 78.50230098 29.01323703 93.3125 44.375 C91.94861323 47.18849117 90.60491325 49.36943098 88.5 51.6875 C87.87996094 52.38230469 87.25992188 53.07710937 86.62109375 53.79296875 C85.47833984 55.07107422 85.47833984 55.07107422 84.3125 56.375 C76.97168682 64.67912154 69.83846032 73.08967155 63.0546875 81.85546875 C61.19373118 84.25836663 59.30279555 86.63228359 57.3828125 88.98828125 C45.86646401 103.12684838 35.71677827 118.09514791 25.74316406 133.35327148 C25.09573242 134.33626221 24.44830078 135.31925293 23.78125 136.33203125 C23.20826172 137.20835205 22.63527344 138.08467285 22.04492188 138.98754883 C20.31472319 141.37193623 18.45072711 143.35475009 16.3125 145.375 C12.26837311 141.56493833 8.60313123 137.58497013 5.125 133.25 C1.6748864 128.95939876 -1.92522092 124.88833509 -5.6875 120.875 C-10.12605252 116.13655469 -14.27893847 111.25378683 -18.34375 106.1875 C-21.01958278 102.97650066 -23.83109707 99.92472364 -26.6875 96.875 C-31.13501179 92.12610388 -35.30850225 87.23937219 -39.375 82.15625 C-42.51228916 78.38302385 -45.84649033 74.80616108 -49.23461914 71.25756836 C-52.6875 67.5869884 -52.6875 67.5869884 -52.6875 65.375 C-62.30685263 72.13289964 -71.88487424 78.94267228 -81.40527344 85.83935547 C-86.79482704 89.74028624 -92.21367922 93.5928374 -97.6875 97.375 C-96.39854283 100.18851786 -95.02481495 102.3075707 -92.89453125 104.546875 C-92.07819214 105.41348755 -92.07819214 105.41348755 -91.24536133 106.29760742 C-90.66939209 106.90064697 -90.09342285 107.50368652 -89.5 108.125 C-88.31166621 109.38593348 -87.12415837 110.64764591 -85.9375 111.91015625 C-85.3703125 112.51230957 -84.803125 113.11446289 -84.21875 113.73486328 C-81.88589299 116.23360904 -79.64909875 118.80922491 -77.41796875 121.3984375 C-75.25712793 123.86657623 -73.03312298 126.27304009 -70.8125 128.6875 C-67.5802002 132.22509948 -64.48693674 135.81617256 -61.5 139.5625 C-56.99722335 145.14883253 -52.12383217 150.3456212 -47.17895508 155.54174805 C-43.44223291 159.47250851 -39.81328631 163.47226155 -36.25927734 167.5690918 C-34.31140893 169.80711333 -32.31434653 171.99774067 -30.3125 174.1875 C-27.11097567 177.72660002 -24.05603937 181.34603106 -21.0625 185.0625 C-18.00450396 188.84252288 -14.84991214 192.33248183 -11.359375 195.7109375 C-8.95922831 198.09986855 -6.7719203 200.6542443 -4.5625 203.21875 C-2.51390906 205.57462958 -0.41546998 207.8800746 1.6875 210.1875 C5.68403376 214.60687522 9.4568497 219.17449027 13.171875 223.83203125 C15.41909805 226.50163381 17.81349504 228.94152839 20.3125 231.375 C21.25131326 229.37561612 22.18839925 227.37542128 23.125 225.375 C23.4355835 224.71201904 23.74616699 224.04903809 24.06616211 223.3659668 C25.98268902 219.26242607 27.87205321 215.14797209 29.734375 211.01953125 C51.22480081 163.46633493 76.67781461 115.63769693 110.3125 75.375 C113.40219091 78.87004395 114.6011914 82.72895392 115.875 87.125 C116.08318359 87.78371094 116.29136719 88.44242187 116.50585938 89.12109375 C121.41603687 105.77567699 120.58542708 123.28233402 120.51528788 140.45001411 C120.50263412 144.07876953 120.50159865 147.70752963 120.49923706 151.33630371 C120.49306472 158.18170859 120.47671253 165.02704822 120.45653808 171.8724246 C120.43404545 179.67674917 120.42315233 187.48107714 120.41314721 195.28542614 C120.39234161 211.31532164 120.35724991 227.34515235 120.3125 243.375 C103.50856198 243.42191091 86.70464551 243.45708174 69.90065765 243.47862434 C62.09667256 243.48889688 54.29272836 243.50287936 46.48876953 243.52587891 C39.67959039 243.54593695 32.87044091 243.55874559 26.06123304 243.56317699 C22.46240024 243.56576356 18.86365219 243.57175706 15.2648468 243.58646011 C-23.77047507 243.73973524 -56.63550302 237.22802568 -85.6875 209.375 C-86.58210938 208.55515625 -87.47671875 207.7353125 -88.3984375 206.890625 C-102.48412053 193.55460017 -111.87328731 176.32452168 -118.0625 158.0625 C-118.30129883 157.35826904 -118.54009766 156.65403809 -118.78613281 155.9284668 C-122.25620433 145.10771919 -123.04925708 134.6430164 -123 123.3125 C-122.99751251 122.62869263 -122.99502502 121.94488525 -122.99246216 121.24035645 C-122.80181184 87.31153287 -110.66794159 58.51426322 -86.9375 34.1875 C-76.05115516 23.44502756 -63.65749539 15.49175789 -49.6875 9.375 C-49.03668457 9.08753906 -48.38586914 8.80007812 -47.71533203 8.50390625 C-32.08014606 1.74695259 -16.94201875 0.11715806 0 0 Z " fill="#FEFEFE" transform="translate(245.6875,128.625)"/>
<path d="M0 0 C1.01858093 -0.0080365 2.03716187 -0.016073 3.08660889 -0.02435303 C32.43187863 -0.1997973 63.33388664 3.16872448 86.8125 22.375 C87.51632813 22.90480469 88.22015625 23.43460938 88.9453125 23.98046875 C104.30304427 36.17631456 111.5337863 56.49821824 113.8125 75.375 C113.89935045 78.13246908 113.94362905 80.8632677 113.93275452 83.61973572 C113.93403615 84.82314624 113.93403615 84.82314624 113.93534368 86.05086809 C113.93698339 88.72395798 113.93150195 91.39698431 113.92602539 94.07006836 C113.92574317 95.99225869 113.92590194 97.91444913 113.9264679 99.8366394 C113.9267545 105.04474595 113.92087991 110.2528294 113.91389394 115.46093059 C113.90763759 120.90751068 113.90705479 126.35409131 113.90586853 131.80067444 C113.90276195 142.1100345 113.89455762 152.41938394 113.88451904 162.72873932 C113.87333702 174.46749187 113.86784219 186.20624493 113.86282361 197.94500148 C113.85237445 222.08834156 113.83403732 246.23166709 113.8125 270.375 C98.9625 270.375 84.1125 270.375 68.8125 270.375 C68.4825 261.795 68.1525 253.215 67.8125 244.375 C65.09 246.375625 62.3675 248.37625 59.5625 250.4375 C35.42191469 267.89465963 9.92217747 277.50525293 -20.01123047 277.67016602 C-21.44785471 277.68160873 -22.88443909 277.70193648 -24.32080078 277.73168945 C-48.64316889 278.23292177 -69.81758538 269.85913152 -87.58984375 253.05859375 C-105.25614167 234.80784688 -110.68658051 212.92404102 -110.40234375 188.10546875 C-109.85094923 167.51208224 -103.02266463 148.99396348 -88.8125 133.84765625 C-58.57241868 105.36257964 -14.51136812 101.87928838 24.8125 98.375 C25.50005371 98.31334656 26.18760742 98.25169312 26.89599609 98.18817139 C40.87902196 96.94287795 54.77105652 96.01851765 68.8125 96.375 C68.45862521 80.6098779 67.27599576 66.3919059 55.8125 54.375 C52.6593079 51.90190816 49.42852801 50.08580895 45.8125 48.375 C45.06613281 47.99859375 44.31976562 47.6221875 43.55078125 47.234375 C30.47101373 41.28296974 15.38283222 40.81747877 1.25 40.9375 C0.47013733 40.94087372 -0.30972534 40.94424744 -1.11322021 40.94772339 C-27.5611927 41.11231219 -53.88585647 46.63042599 -78.453125 56.52734375 C-81.1875 57.375 -81.1875 57.375 -87.1875 57.375 C-87.1875 42.525 -87.1875 27.675 -87.1875 12.375 C-77.0337908 8.99043027 -77.0337908 8.99043027 -71.58984375 7.875 C-70.39053223 7.6289502 -69.1912207 7.38290039 -67.95556641 7.12939453 C-61.37397486 5.83321111 -54.7856225 4.58409362 -48.1875 3.375 C-47.20958496 3.1884082 -46.23166992 3.00181641 -45.22412109 2.80957031 C-30.2493735 0.04474682 -15.17822947 0.06691805 0 0 Z M43.12890625 134.109375 C41.72574409 134.22600998 41.72574409 134.22600998 40.29423523 134.34500122 C37.32031027 134.59614837 34.34761363 134.85880388 31.375 135.125 C30.35603638 135.21525452 29.33707275 135.30550903 28.28723145 135.39849854 C-17.33075377 138.93791319 -17.33075377 138.93791319 -55.08984375 162.71875 C-64.01485206 174.0204365 -64.25539452 187.60332126 -63.1875 201.375 C-60.83501947 213.13740267 -54.70382128 221.2584467 -45.1875 228.375 C-42.43383853 229.83182774 -42.43383853 229.83182774 -39.5 231 C-38.54738281 231.40476562 -37.59476563 231.80953125 -36.61328125 232.2265625 C-18.22054305 238.39242912 4.51485231 237.55820933 22.8125 231.375 C24.029375 230.97410156 25.24625 230.57320313 26.5 230.16015625 C40.92841988 224.88705788 57.83387143 216.35362857 68.8125 205.375 C68.90686529 203.13570114 68.92992327 200.8933825 68.92602539 198.65209961 C68.92624443 197.59849495 68.92624443 197.59849495 68.9264679 196.52360535 C68.92576872 194.19148722 68.91797617 191.859448 68.91015625 189.52734375 C68.90829208 187.91451562 68.90686818 186.30168693 68.90586853 184.68885803 C68.90204323 180.43584643 68.89221285 176.18286876 68.88116455 171.92987061 C68.87095069 167.5932257 68.86637096 163.25657533 68.86132812 158.91992188 C68.85059059 150.40493231 68.83351403 141.88997037 68.8125 133.375 C60.20565162 133.29852481 51.70842494 133.35697675 43.12890625 134.109375 Z " fill="#FEFEFE" transform="translate(2095.1875,166.625)"/>
<path d="M0 0 C14.85 0 29.7 0 45 0 C45.33 42.9 45.66 85.8 46 130 C50.95 126.37 55.9 122.74 61 119 C63.80804617 117.16753031 66.54179474 115.41057387 69.4375 113.75 C70.13649414 113.34507324 70.83548828 112.94014648 71.55566406 112.52294922 C90.88963739 101.55371918 110.75652267 95.59630625 133.0625 95.625 C133.74398102 95.62521149 134.42546204 95.62542297 135.12759399 95.62564087 C146.17750921 95.65980602 156.44279667 96.57847568 167 100 C168.08539062 100.350625 169.17078125 100.70125 170.2890625 101.0625 C188.99181534 108.02166385 201.8713032 122.02712202 210.76171875 139.453125 C219.9095565 159.63827831 221.32539842 180.91292101 221.22705078 202.75048828 C221.22648478 204.54622389 221.2268069 206.34195997 221.22793579 208.13769531 C221.22850294 212.95056741 221.21685351 217.76333712 221.20278788 222.5761857 C221.19017266 227.62898121 221.1891016 232.6817798 221.18673706 237.73458862 C221.18055368 247.27507307 221.16418599 256.81551096 221.14403808 266.35597503 C221.1215805 277.22921409 221.11066101 288.10245553 221.10064721 298.97571206 C221.07981651 321.31717303 221.04318019 343.65857028 221 366 C206.15 366 191.3 366 176 366 C175.98018066 361.38016113 175.96036133 356.76032227 175.93994141 352.00048828 C175.87269173 336.64572628 175.79515355 321.29102852 175.71247292 305.93634224 C175.66264612 296.6372652 175.61620367 287.33819568 175.578125 278.0390625 C175.5448729 269.92082146 175.50486722 261.80264452 175.45720994 253.68447483 C175.43226956 249.39790068 175.41039873 245.11136724 175.39665604 240.82474136 C177.88481718 192.15521381 177.88481718 192.15521381 159 150 C143.94339128 138.58290266 124.58905303 138.24340196 106.47802734 140.28417969 C96.10117928 142.01404084 86.3937348 146.4147111 77 151 C76.3723877 151.30421875 75.74477539 151.6084375 75.09814453 151.921875 C71.34152378 153.76839934 67.69519829 155.75844534 64.06362057 157.84285581 C62.69829081 158.60844393 61.31895155 159.34961301 59.92639256 160.06447661 C51.09547182 164.50412969 51.09547182 164.50412969 45.08582115 171.99258399 C43.63176421 177.65849524 43.9313416 183.44029661 44.09179688 189.2409668 C44.08644013 191.1736304 44.07403614 193.10628528 44.05516052 195.03886414 C44.02397079 200.25911188 44.09075011 205.47396076 44.1757679 210.69343543 C44.24790094 216.15732747 44.2290772 221.62090704 44.22009277 227.0851593 C44.2168228 237.42014349 44.29480029 247.75283727 44.40231276 258.08719808 C44.5207819 269.85742225 44.54816038 281.62731432 44.56806469 293.39805353 C44.6110219 317.60002987 44.77981252 341.79894241 45 366 C30.15 366 15.3 366 0 366 C0 245.22 0 124.44 0 0 Z " fill="#FEFEFE" transform="translate(1699,71)"/>
<path d="M0 0 C14.85 0 29.7 0 45 0 C45.33 42.9 45.66 85.8 46 130 C50.95 126.37 55.9 122.74 61 119 C63.80804617 117.16753031 66.54179474 115.41057387 69.4375 113.75 C70.13649414 113.34507324 70.83548828 112.94014648 71.55566406 112.52294922 C90.88963739 101.55371918 110.75652267 95.59630625 133.0625 95.625 C133.74398102 95.62521149 134.42546204 95.62542297 135.12759399 95.62564087 C146.17750921 95.65980602 156.44279667 96.57847568 167 100 C168.08539062 100.350625 169.17078125 100.70125 170.2890625 101.0625 C188.99181534 108.02166385 201.8713032 122.02712202 210.76171875 139.453125 C219.9095565 159.63827831 221.32539842 180.91292101 221.22705078 202.75048828 C221.22648478 204.54622389 221.2268069 206.34195997 221.22793579 208.13769531 C221.22850294 212.95056741 221.21685351 217.76333712 221.20278788 222.5761857 C221.19017266 227.62898121 221.1891016 232.6817798 221.18673706 237.73458862 C221.18055368 247.27507307 221.16418599 256.81551096 221.14403808 266.35597503 C221.1215805 277.22921409 221.11066101 288.10245553 221.10064721 298.97571206 C221.07981651 321.31717303 221.04318019 343.65857028 221 366 C206.15 366 191.3 366 176 366 C175.98018066 361.38016113 175.96036133 356.76032227 175.93994141 352.00048828 C175.87269173 336.64572628 175.79515355 321.29102852 175.71247292 305.93634224 C175.66264612 296.6372652 175.61620367 287.33819568 175.578125 278.0390625 C175.5448729 269.92082146 175.50486722 261.80264452 175.45720994 253.68447483 C175.43226956 249.39790068 175.41039873 245.11136724 175.39665604 240.82474136 C177.88481718 192.15521381 177.88481718 192.15521381 159 150 C143.94339128 138.58290266 124.58905303 138.24340196 106.47802734 140.28417969 C96.10117928 142.01404084 86.3937348 146.4147111 77 151 C76.3723877 151.30421875 75.74477539 151.6084375 75.09814453 151.921875 C71.34152378 153.76839934 67.69519829 155.75844534 64.06362057 157.84285581 C62.69829081 158.60844393 61.31895155 159.34961301 59.92639256 160.06447661 C51.09547182 164.50412969 51.09547182 164.50412969 45.08582115 171.99258399 C43.63176421 177.65849524 43.9313416 183.44029661 44.09179688 189.2409668 C44.08644013 191.1736304 44.07403614 193.10628528 44.05516052 195.03886414 C44.02397079 200.25911188 44.09075011 205.47396076 44.1757679 210.69343543 C44.24790094 216.15732747 44.2290772 221.62090704 44.22009277 227.0851593 C44.2168228 237.42014349 44.29480029 247.75283727 44.40231276 258.08719808 C44.5207819 269.85742225 44.54816038 281.62731432 44.56806469 293.39805353 C44.6110219 317.60002987 44.77981252 341.79894241 45 366 C30.15 366 15.3 366 0 366 C0 245.22 0 124.44 0 0 Z " fill="#FEFEFE" transform="translate(821,71)"/>
<path d="M0 0 C1 3 1 3 0.04370117 4.9453125 C-0.45154053 5.66460937 -0.94678223 6.38390625 -1.45703125 7.125 C-1.99263672 7.91390625 -2.52824219 8.7028125 -3.08007812 9.515625 C-3.65177734 10.33546875 -4.22347656 11.1553125 -4.8125 12 C-5.37259766 12.81984375 -5.93269531 13.6396875 -6.50976562 14.484375 C-7.55370638 16.01099804 -8.6018744 17.53474466 -9.65551758 19.0546875 C-10.78696472 20.69176228 -11.89613456 22.34420183 -13 24 C-17.4476839 22.47268213 -21.04959343 20.03947971 -24.875 17.375 C-43.5426935 4.74377135 -64.47998999 -4.71608825 -86.77539062 -8.61035156 C-88.27931873 -8.87377005 -89.78068426 -9.15218995 -91.27929688 -9.44433594 C-123.79650415 -15.78151171 -159.94370596 -12.50577827 -190 2 C-190.62068359 2.29664551 -191.24136719 2.59329102 -191.88085938 2.89892578 C-210.32219736 11.75341509 -226.8191651 22.31112089 -241.52880859 36.58007812 C-242.87369879 37.87810026 -244.2423658 39.1513704 -245.61328125 40.421875 C-273.97993188 67.38602775 -292.09706311 108.94767737 -294.20629883 147.80004883 C-294.30271255 151.74304618 -294.33355569 155.68125695 -294.3125 159.625 C-294.31100952 160.32043915 -294.30951904 161.0158783 -294.3079834 161.73239136 C-294.26340999 173.35490638 -293.48530741 184.62329108 -291 196 C-290.7215625 197.27875 -290.443125 198.5575 -290.15625 199.875 C-286.18426475 216.036871 -279.90193905 231.38583398 -272 246 C-271.43539062 247.05703125 -270.87078125 248.1140625 -270.2890625 249.203125 C-263.7372868 260.95325795 -255.22364154 271.24751561 -246 281 C-245.20464844 281.85980469 -244.40929687 282.71960938 -243.58984375 283.60546875 C-216.47346062 311.94883755 -175.58946787 332.15883986 -136.07176208 333.28852844 C-131.75586823 333.370326 -127.44156904 333.38427513 -123.125 333.375 C-122.21847687 333.37478851 -121.31195374 333.37457703 -120.37796021 333.37435913 C-106.25703014 333.34149041 -92.72633305 332.57897913 -79 329 C-78.29343262 328.82339844 -77.58686523 328.64679688 -76.85888672 328.46484375 C-50.87613995 321.78197485 -25.80962284 308.38123824 -6.21875 290.0625 C-4.24262907 288.22554251 -2.21045379 286.52188835 -0.125 284.8125 C10.45466255 275.53396531 18.61989446 263.87884977 26 252 C26.69867188 250.89269531 27.39734375 249.78539062 28.1171875 248.64453125 C41.5154026 226.40975016 51.03455845 198.1093625 51.203125 172.08203125 C51.21371445 170.98546455 51.21371445 170.98546455 51.22451782 169.866745 C51.43390853 141.78477321 48.45038551 116.90262783 37.00390625 90.96875 C35.93167329 87.79794435 35.88674802 87.02707323 37 84 C38.31933594 82.21655273 38.31933594 82.21655273 39.984375 80.43359375 C40.59023438 79.78326172 41.19609375 79.13292969 41.8203125 78.46289062 C42.45710938 77.79451172 43.09390625 77.12613281 43.75 76.4375 C44.37132812 75.76525391 44.99265625 75.09300781 45.6328125 74.40039062 C48.84316954 70.99023288 51.76640694 68.14103466 56 66 C67.47131857 85.54372793 73.80026273 106.81550548 78 129 C78.13132324 129.68368652 78.26264648 130.36737305 78.39794922 131.07177734 C87.34569099 180.12748926 73.17558356 233.91073142 45.4375 274.625 C40.39298421 281.78402669 34.83881331 288.4799918 29 295 C28.49791016 295.56380371 27.99582031 296.12760742 27.47851562 296.70849609 C25.9315239 298.4384288 24.37477093 300.15885966 22.8125 301.875 C22.34980713 302.38635498 21.88711426 302.89770996 21.41040039 303.42456055 C-10.32099934 337.76264714 -61.15440432 360.48536384 -107.71601868 362.37263489 C-122.83148966 362.80711614 -138.05981376 362.44643626 -153 360 C-154.92392578 359.70802734 -154.92392578 359.70802734 -156.88671875 359.41015625 C-174.78985127 356.39957974 -191.72342531 351.01308293 -208 343 C-208.77585449 342.62359375 -209.55170898 342.2471875 -210.35107422 341.859375 C-257.48913062 318.79488257 -294.20936785 277.3751649 -311.33862305 227.73876953 C-312.96651046 222.8478211 -314.50603801 217.93333807 -316 213 C-316.22945313 212.25459961 -316.45890625 211.50919922 -316.6953125 210.74121094 C-321.50494289 194.91965779 -322.37337267 179.19043973 -322.37060547 162.77539062 C-322.37496344 159.89912953 -322.4113897 157.02442782 -322.44921875 154.1484375 C-322.56479534 134.98203734 -319.19248381 117.08357236 -313 99 C-312.62101562 97.7728125 -312.24203125 96.545625 -311.8515625 95.28125 C-303.29195456 67.93646222 -287.2992285 43.01035064 -267.42724609 22.47851562 C-265.94358254 20.94155591 -264.48227723 19.38498235 -263.01953125 17.828125 C-196.73221665 -51.66092112 -75.0647466 -61.29236312 0 0 Z " fill="#79BF45" transform="translate(375,89)"/>
<path d="M0 0 C1.21688004 -0.00060425 1.21688004 -0.00060425 2.45834351 -0.0012207 C32.37815867 0.08393205 58.27825183 8.74491262 85.25 21.4375 C85.25 37.9375 85.25 54.4375 85.25 71.4375 C78.65025851 70.33754308 78.65025851 70.33754308 74.8125 67.125 C61.38011663 56.96836135 45.39219302 49.45296504 29.18603516 44.97509766 C27.45052338 44.49318127 25.72976066 43.95887217 24.01171875 43.41796875 C2.03455558 37.42419698 -23.10478001 40.18546356 -42.984375 51.109375 C-60.87444228 61.68326014 -71.29236594 80.24054458 -76.5625 99.8125 C-84.74453025 132.40414551 -83.25632505 170.20370641 -67.75 200.4375 C-65.28196689 204.27772141 -62.60734872 207.88027437 -59.75 211.4375 C-59.12351562 212.2728125 -58.49703125 213.108125 -57.8515625 213.96875 C-47.30744925 226.35514327 -30.662481 233.60506721 -14.75 235.4375 C0.94934799 236.55018383 16.17327226 236.09850135 31.25 231.4375 C31.93497559 231.23914551 32.61995117 231.04079102 33.32568359 230.83642578 C49.87270084 225.98237661 64.98073474 217.34111903 78.71875 207.01953125 C81.25 205.4375 81.25 205.4375 85.25 205.4375 C85.25 221.9375 85.25 238.4375 85.25 255.4375 C36.74324098 276.48276053 36.74324098 276.48276053 11.140625 276.640625 C10.38031982 276.64763931 9.62001465 276.65465363 8.83666992 276.66188049 C6.39105265 276.67932113 3.94567721 276.68573419 1.5 276.6875 C0.66641968 276.68817474 -0.16716064 276.68884949 -1.02600098 276.68954468 C-13.1633459 276.67390151 -24.91270802 276.37513768 -36.75 273.4375 C-37.45350586 273.27121094 -38.15701172 273.10492188 -38.88183594 272.93359375 C-67.27608149 266.04240607 -92.50537437 249.25075178 -108.08691406 224.29638672 C-131.30578509 185.1455089 -134.26094945 134.42553997 -123.2890625 90.8671875 C-114.85678017 59.83772171 -95.74703559 32.66662941 -67.75 16.4375 C-66.81897461 15.89270996 -66.81897461 15.89270996 -65.86914062 15.33691406 C-45.62379976 3.74566968 -23.05465609 -0.01179583 0 0 Z " fill="#FEFEFE" transform="translate(1557.75,166.5625)"/>
<path d="M0 0 C1.21688004 -0.00060425 1.21688004 -0.00060425 2.45834351 -0.0012207 C32.37815867 0.08393205 58.27825183 8.74491262 85.25 21.4375 C85.25 37.9375 85.25 54.4375 85.25 71.4375 C78.65025851 70.33754308 78.65025851 70.33754308 74.8125 67.125 C61.38011663 56.96836135 45.39219302 49.45296504 29.18603516 44.97509766 C27.45052338 44.49318127 25.72976066 43.95887217 24.01171875 43.41796875 C2.03455558 37.42419698 -23.10478001 40.18546356 -42.984375 51.109375 C-60.87444228 61.68326014 -71.29236594 80.24054458 -76.5625 99.8125 C-84.74453025 132.40414551 -83.25632505 170.20370641 -67.75 200.4375 C-65.28196689 204.27772141 -62.60734872 207.88027437 -59.75 211.4375 C-59.12351562 212.2728125 -58.49703125 213.108125 -57.8515625 213.96875 C-47.30744925 226.35514327 -30.662481 233.60506721 -14.75 235.4375 C0.94934799 236.55018383 16.17327226 236.09850135 31.25 231.4375 C31.93497559 231.23914551 32.61995117 231.04079102 33.32568359 230.83642578 C49.87270084 225.98237661 64.98073474 217.34111903 78.71875 207.01953125 C81.25 205.4375 81.25 205.4375 85.25 205.4375 C85.25 221.9375 85.25 238.4375 85.25 255.4375 C36.74324098 276.48276053 36.74324098 276.48276053 11.140625 276.640625 C10.38031982 276.64763931 9.62001465 276.65465363 8.83666992 276.66188049 C6.39105265 276.67932113 3.94567721 276.68573419 1.5 276.6875 C0.66641968 276.68817474 -0.16716064 276.68884949 -1.02600098 276.68954468 C-13.1633459 276.67390151 -24.91270802 276.37513768 -36.75 273.4375 C-37.45350586 273.27121094 -38.15701172 273.10492188 -38.88183594 272.93359375 C-67.27608149 266.04240607 -92.50537437 249.25075178 -108.08691406 224.29638672 C-131.30578509 185.1455089 -134.26094945 134.42553997 -123.2890625 90.8671875 C-114.85678017 59.83772171 -95.74703559 32.66662941 -67.75 16.4375 C-66.81897461 15.89270996 -66.81897461 15.89270996 -65.86914062 15.33691406 C-45.62379976 3.74566968 -23.05465609 -0.01179583 0 0 Z " fill="#FEFEFE" transform="translate(679.75,166.5625)"/>
<path d="M0 0 C14.85 0 29.7 0 45 0 C45 25.08 45 50.16 45 76 C75.36 76 105.72 76 137 76 C137 88.21 137 100.42 137 113 C106.64 113 76.28 113 45 113 C45.14910955 137.49221632 45.14910955 137.49221632 45.30664062 161.984375 C45.3728142 171.98240732 45.43809148 181.98043939 45.49731445 191.97851562 C45.54046413 199.26235801 45.58681507 206.5461721 45.63687855 213.82997036 C45.66323436 217.68026735 45.68807659 221.53055964 45.70907402 225.38088989 C45.7289631 229.01865191 45.75319179 232.6563613 45.78049088 236.29407501 C45.79402034 238.23759645 45.80318101 240.18114684 45.81211853 242.12469482 C45.79862226 269.82933082 45.79862226 269.82933082 57.81640625 294.171875 C69.23600763 304.96858903 84.0733166 304.50322577 98.80859375 304.36328125 C107.01659184 304.1067472 114.51883939 302.44482094 122.37890625 300.19140625 C127 299 127 299 137 298 C137 311.2 137 324.4 137 338 C106.04250077 345.73937481 66.50578646 352.47368171 37 336 C36.07832031 335.48566406 35.15664062 334.97132813 34.20703125 334.44140625 C16.71812571 323.99630819 7.96540577 308.19249783 3 289 C-1.0730871 271.15424104 -0.39868163 252.7518483 -0.30418181 234.57171798 C-0.28516771 230.28369227 -0.28364543 225.99565719 -0.28010559 221.70759583 C-0.27085659 213.62277017 -0.24634182 205.53806918 -0.21605712 197.45329791 C-0.18228778 188.23414066 -0.16597102 179.01497681 -0.15097082 169.79577291 C-0.11978406 150.86376401 -0.06486384 131.93192554 0 113 C-9.9 113 -19.8 113 -30 113 C-30 100.79 -30 88.58 -30 76 C-20.1 76 -10.2 76 0 76 C0 50.92 0 25.84 0 0 Z " fill="#FEFEFE" transform="translate(2294,98)"/>
<path d="M0 0 C14.85 0 29.7 0 45 0 C45 25.08 45 50.16 45 76 C75.36 76 105.72 76 137 76 C137 88.21 137 100.42 137 113 C106.64 113 76.28 113 45 113 C45.14910955 137.49221632 45.14910955 137.49221632 45.30664062 161.984375 C45.3728142 171.98240732 45.43809148 181.98043939 45.49731445 191.97851562 C45.54046413 199.26235801 45.58681507 206.5461721 45.63687855 213.82997036 C45.66323436 217.68026735 45.68807659 221.53055964 45.70907402 225.38088989 C45.7289631 229.01865191 45.75319179 232.6563613 45.78049088 236.29407501 C45.79402034 238.23759645 45.80318101 240.18114684 45.81211853 242.12469482 C45.79862226 269.82933082 45.79862226 269.82933082 57.81640625 294.171875 C69.23600763 304.96858903 84.0733166 304.50322577 98.80859375 304.36328125 C107.01659184 304.1067472 114.51883939 302.44482094 122.37890625 300.19140625 C127 299 127 299 137 298 C137 311.2 137 324.4 137 338 C106.04250077 345.73937481 66.50578646 352.47368171 37 336 C36.07832031 335.48566406 35.15664062 334.97132813 34.20703125 334.44140625 C16.71812571 323.99630819 7.96540577 308.19249783 3 289 C-1.0730871 271.15424104 -0.39868163 252.7518483 -0.30418181 234.57171798 C-0.28516771 230.28369227 -0.28364543 225.99565719 -0.28010559 221.70759583 C-0.27085659 213.62277017 -0.24634182 205.53806918 -0.21605712 197.45329791 C-0.18228778 188.23414066 -0.16597102 179.01497681 -0.15097082 169.79577291 C-0.11978406 150.86376401 -0.06486384 131.93192554 0 113 C-9.9 113 -19.8 113 -30 113 C-30 100.79 -30 88.58 -30 76 C-20.1 76 -10.2 76 0 76 C0 50.92 0 25.84 0 0 Z " fill="#FEFEFE" transform="translate(1259,98)"/>
<path d="M0 0 C1.65 0.33 3.3 0.66 5 1 C5 6.28 5 11.56 5 17 C1.75305663 18.81816847 -1.49729396 20.62969437 -4.75 22.4375 C-5.67039062 22.95376953 -6.59078125 23.47003906 -7.5390625 24.00195312 C-8.42851562 24.49501953 -9.31796875 24.98808594 -10.234375 25.49609375 C-11.45979004 26.17949829 -11.45979004 26.17949829 -12.70996094 26.87670898 C-15 28 -15 28 -17.23535156 28.53149414 C-17.81768555 28.68610107 -18.40001953 28.84070801 -19 29 C-19.33 29.66 -19.66 30.32 -20 31 C-20.598125 31.12375 -21.19625 31.2475 -21.8125 31.375 C-24.17098678 31.85734239 -24.17098678 31.85734239 -25.9375 33.9375 C-28.90109599 36.90109599 -32.09119562 37.69706521 -36 39 C-36.33 39.99 -36.66 40.98 -37 42 C-39.09697179 43.64638281 -41.16492863 45.1484437 -43.375 46.625 C-43.96539062 47.03234375 -44.55578125 47.4396875 -45.1640625 47.859375 C-47.7556645 49.62213131 -50.01210722 51.00403574 -53 52 C-53.33 52.66 -53.66 53.32 -54 54 C-55.32451172 54.1546875 -55.32451172 54.1546875 -56.67578125 54.3125 C-60.83440218 55.17256731 -63.14268861 57.21892342 -66.1875 60 C-67.33898726 61.01529513 -68.49134353 62.02960545 -69.64453125 63.04296875 C-70.496521 63.799729 -70.496521 63.799729 -71.36572266 64.57177734 C-73.64241832 66.56142025 -76.00703528 68.43299437 -78.375 70.3125 C-84.89345368 75.62173329 -90.9531206 81.3992449 -97.05615234 87.17382812 C-98.95716249 88.95975576 -100.87506833 90.72514307 -102.80078125 92.484375 C-111.65769401 100.59690336 -119.92491826 109.11247834 -128 118 C-129.26650391 119.37671875 -129.26650391 119.37671875 -130.55859375 120.78125 C-135.93745901 126.67283206 -140.98614701 132.79721463 -146 139 C-147.01082767 140.23120087 -148.02260049 141.46162618 -149.03515625 142.69140625 C-167.80741331 165.53830567 -184.81594769 189.62133458 -200 215 C-200.55365234 215.91797363 -201.10730469 216.83594727 -201.67773438 217.78173828 C-220.12860782 248.45079275 -236.61608071 280.80302799 -250 314 C-254.732213 310.15469727 -258.81429655 306.13881373 -262.6875 301.4375 C-266.78574159 296.55718111 -270.96728124 291.78705763 -275.3125 287.125 C-279.03920939 283.12377853 -282.71499902 279.09215441 -286.29296875 274.95703125 C-288.33633431 272.6144085 -290.41680859 270.30726578 -292.5 268 C-295.76390848 264.38323655 -298.98790949 260.73610392 -302.1875 257.0625 C-305.0326929 253.8248667 -307.92853836 250.6331371 -310.81640625 247.43359375 C-312.70848685 245.32488854 -314.57905758 243.20080199 -316.4375 241.0625 C-319.19784541 237.88778403 -322.02792558 234.78462564 -324.875 231.6875 C-328.1072998 228.14990052 -331.20056326 224.55882744 -334.1875 220.8125 C-338.69027665 215.22616747 -343.56366783 210.0293788 -348.50854492 204.83325195 C-352.2308394 200.91766838 -355.84807512 196.93499489 -359.38867188 192.85424805 C-361.54217261 190.37609077 -363.73751803 187.93690311 -365.9375 185.5 C-366.70964844 184.6440625 -367.48179687 183.788125 -368.27734375 182.90625 C-369.13005859 181.96265625 -369.13005859 181.96265625 -370 181 C-368.61292928 177.68451939 -367.20408973 176.14578202 -364.2109375 174.1875 C-363.44168945 173.67509766 -362.67244141 173.16269531 -361.87988281 172.63476562 C-361.05327148 172.09529297 -360.22666016 171.55582031 -359.375 171 C-351.56016326 165.78614544 -343.98763296 160.34768586 -336.515625 154.65625 C-326.41613051 147 -326.41613051 147 -324 147 C-322.62787699 148.53195272 -321.3284554 150.12921081 -320.0625 151.75 C-316.67926119 155.98583672 -313.19908178 160.03864089 -309.5 164 C-306.04772215 167.70798006 -302.73473953 171.48510753 -299.5625 175.4375 C-295.71889943 180.21621628 -291.63039836 184.69157687 -287.44165039 189.16381836 C-284.32446055 192.51099327 -281.36426202 195.93005023 -278.5 199.5 C-274.17566204 204.88576637 -269.52964973 209.91511004 -264.8203125 214.9609375 C-261.45969163 218.56498363 -258.20867595 222.26031077 -255 226 C-252.41812495 223.614816 -250.58380175 221.02787242 -248.6640625 218.08984375 C-248.01848389 217.10870605 -247.37290527 216.12756836 -246.70776367 215.11669922 C-246.02045166 214.06756348 -245.33313965 213.01842773 -244.625 211.9375 C-234.38688107 196.4535463 -223.65195535 181.45097748 -212 167 C-211.24203125 166.05898437 -210.4840625 165.11796875 -209.703125 164.1484375 C-201.75817912 154.37220977 -193.65903677 144.7238203 -185.18359375 135.40234375 C-183.68778196 133.75668319 -182.20122468 132.10257661 -180.72265625 130.44140625 C-176.57414658 125.78231078 -172.33264005 121.28926993 -167.8828125 116.91796875 C-166.07256158 115.07391646 -164.4112066 113.16570013 -162.75 111.1875 C-159.26690401 107.12921384 -155.37156404 103.57375957 -151.40551758 100.0012207 C-148.66419612 97.53141079 -145.99666712 95.03283381 -143.4375 92.375 C-139.82826356 88.69568129 -135.8288648 85.54275047 -131.81640625 82.31640625 C-129.17039649 80.14014579 -126.64331697 77.88426541 -124.125 75.5625 C-110.43504244 63.13854165 -94.81441841 52.49953315 -79.5 42.1875 C-78.87109863 41.76082031 -78.24219727 41.33414063 -77.59423828 40.89453125 C-73.24151407 38 -73.24151407 38 -71 38 C-71.33 37.01 -71.66 36.02 -72 35 C-48.81721999 20.39219263 -48.81721999 20.39219263 -40 19 C-39.34 18.34 -38.68 17.68 -38 17 C-34.047983 13.75370033 -30.08091177 11.25480552 -24.9375 10.625 C-18.96623299 9.67717984 -13.57959978 7.27379179 -8 5 C-8 4.34 -8 3.68 -8 3 C-5.36 2.67 -2.72 2.34 0 2 C0 1.34 0 0.68 0 0 Z " fill="#7AC044" transform="translate(517,47)"/>
<path d="M0 0 C14.85 0 29.7 0 45 0 C45 86.79 45 173.58 45 263 C30.15 263 15.3 263 0 263 C0 176.21 0 89.42 0 0 Z " fill="#FEFEFE" transform="translate(1127,174)"/>
<path d="M0 0 C16.83 0 33.66 0 51 0 C51 15.18 51 30.36 51 46 C34.17 46 17.34 46 0 46 C0 30.82 0 15.64 0 0 Z " fill="#FEFEFE" transform="translate(1124,84)"/>
<path d="M0 0 C0.66 0 1.32 0 2 0 C2.1875 3.3125 2.1875 3.3125 2 7 C1.01 7.99 0.02 8.98 -1 10 C-0.67 6.7 -0.34 3.4 0 0 Z " fill="#74BD65" transform="translate(56,208)"/>
<path d="M0 0 C1.65 1.65 3.3 3.3 5 5 C4.34 5.66 3.68 6.32 3 7 C1.68 5.68 0.36 4.36 -1 3 C-0.67 2.01 -0.34 1.02 0 0 Z " fill="#87C55B" transform="translate(148,225)"/>
<path d="M0 0 C0.33 0 0.66 0 1 0 C1 4.62 1 9.24 1 14 C0.67 14 0.34 14 0 14 C0 9.38 0 4.76 0 0 Z " fill="#79C043" transform="translate(523,48)"/>
<path d="M0 0 C0.66 0.33 1.32 0.66 2 1 C1.01 1 0.02 1 -1 1 C-0.67 0.67 -0.34 0.34 0 0 Z " fill="#79C043" transform="translate(482,85)"/>
<path d="M0 0 C3 1 3 1 3 1 Z " fill="#7AC043" transform="translate(496,55)"/>
<path d="M0 0 C3 1 3 1 3 1 Z " fill="#7AC043" transform="translate(501,53)"/>
<path d="M0 0 C3 1 3 1 3 1 Z " fill="#79C043" transform="translate(506,51)"/>
<path d="M0 0 C3 1 3 1 3 1 Z " fill="#7AC043" transform="translate(514,48)"/>
<path d="M0 0 C2 1 2 1 2 1 Z " fill="#7AC043" transform="translate(493,78)"/>
<path d="M0 0 C2 1 2 1 2 1 Z " fill="#79C043" transform="translate(498,75)"/>
<path d="M0 0 C2 1 2 1 2 1 Z " fill="#7AC043" transform="translate(473,66)"/>
<path d="M0 0 C2 1 2 1 2 1 Z " fill="#7ABF43" transform="translate(475,65)"/>
<path d="M0 0 C2 1 2 1 2 1 Z " fill="#7ABF42" transform="translate(477,64)"/>
<path d="M0 0 C2 1 2 1 2 1 Z " fill="#79BF43" transform="translate(492,57)"/>
<path d="M0 0 C2 1 2 1 2 1 Z " fill="#7AC043" transform="translate(494,56)"/>
<path d="M0 0 C2 1 2 1 2 1 Z " fill="#7AC043" transform="translate(499,54)"/>
<path d="M0 0 C2 1 2 1 2 1 Z " fill="#7ABF43" transform="translate(504,52)"/>
<path d="M0 0 C2 1 2 1 2 1 Z " fill="#7AC043" transform="translate(512,49)"/>
<path d="M0 0 C2 1 2 1 2 1 Z " fill="#7AC043" transform="translate(520,46)"/>
<path d="" fill="#7AC043" transform="translate(0,0)"/>
<path d="" fill="#7AC144" transform="translate(0,0)"/>
</svg>
